<svg width="18" height="23" viewBox="0 0 18 23" fill="none" xmlns="http://www.w3.org/2000/svg">
<g opacity="0.2">
<path opacity="0.8" d="M1 8.25526C1 4.83562 1 3.12458 1.879 2.0629C2.757 1 4.172 1 7 1H11C13.828 1 15.243 1 16.121 2.0629C17 3.12458 17 4.83562 17 8.25526V16.5118C17 19.7561 17 21.3776 16.156 21.8746C15.311 22.3704 14.256 21.3679 12.146 19.3643L11.471 18.7222C10.285 17.5952 9.691 17.0317 9 17.0317C8.309 17.0317 7.715 17.5952 6.529 18.7222L5.853 19.3631C3.743 21.3679 2.689 22.3704 1.844 21.8746C1 21.3788 1 19.7549 1 16.5118V8.25526Z" stroke="#2E2A27" stroke-width="2"/>
</g>
</svg>
