<svg width="16" height="12" viewBox="0 0 16 12" fill="none" xmlns="http://www.w3.org/2000/svg">
<path opacity="0.6" d="M8.82901 10.4462L5.07901 0.446166C5.02988 0.315111 4.94192 0.202173 4.82689 0.122445C4.71185 0.0427181 4.57523 0 4.43526 0C4.2953 0 4.15867 0.0427181 4.04364 0.122445C3.92861 0.202173 3.84064 0.315111 3.79151 0.446166L0.0415135 10.4462C-0.0205092 10.6165 -0.0127836 10.8043 0.0630099 10.969C0.138803 11.1336 0.276533 11.2616 0.44624 11.3252C0.615946 11.3888 0.803901 11.3828 0.969219 11.3086C1.13454 11.2343 1.26384 11.0978 1.32901 10.9287L2.45901 7.91554C2.46346 7.90363 2.47144 7.89336 2.48188 7.8861C2.49233 7.87884 2.50473 7.87494 2.51745 7.87492H6.35308C6.36579 7.87494 6.3782 7.87884 6.38864 7.8861C6.39908 7.89336 6.40706 7.90363 6.41151 7.91554L7.54151 10.9287C7.60668 11.0978 7.73599 11.2343 7.90131 11.3086C8.06663 11.3828 8.25458 11.3888 8.42429 11.3252C8.59399 11.2616 8.73172 11.1336 8.80752 10.969C8.88331 10.8043 8.89104 10.6165 8.82901 10.4462ZM3.02151 6.41492L4.37683 2.80085C4.38132 2.789 4.38932 2.77879 4.39976 2.77158C4.4102 2.76438 4.42258 2.76052 4.43526 2.76052C4.44795 2.76052 4.46033 2.76438 4.47077 2.77158C4.4812 2.77879 4.4892 2.789 4.4937 2.80085L5.84901 6.41554C5.85254 6.42499 5.85373 6.43515 5.85249 6.44515C5.85124 6.45516 5.84759 6.46471 5.84185 6.473C5.83611 6.48129 5.82844 6.48807 5.81952 6.49275C5.81059 6.49744 5.80066 6.4999 5.79058 6.49992H3.07995C3.06987 6.4999 3.05994 6.49744 3.05101 6.49275C3.04208 6.48807 3.03442 6.48129 3.02868 6.473C3.02294 6.46471 3.01929 6.45516 3.01804 6.44515C3.01679 6.43515 3.01798 6.42499 3.02151 6.41554V6.41492ZM12.2093 2.99992C10.9056 2.99054 9.73808 3.74585 9.24058 4.91867C9.1693 5.0865 9.16761 5.27577 9.23589 5.44485C9.30416 5.61392 9.43681 5.74895 9.60464 5.82023C9.77247 5.89151 9.96174 5.89319 10.1308 5.82492C10.2999 5.75664 10.4349 5.624 10.5062 5.45617C10.7837 4.80335 11.4365 4.37992 12.1725 4.37492C13.1825 4.36804 13.9978 5.20304 13.9978 6.21398C13.9978 6.22614 13.993 6.23784 13.9846 6.24658C13.9761 6.25533 13.9646 6.26045 13.9525 6.26085C13.2675 6.27992 12.455 6.32554 11.73 6.41085C10.019 6.6121 8.99776 7.54492 8.99776 8.90617C8.99776 9.63085 9.27151 10.2812 9.7687 10.7399C10.2353 11.1696 10.8728 11.4062 11.5603 11.4062C12.529 11.4062 13.3631 11.1562 13.9959 10.6805H13.9978C13.9974 10.7708 14.0148 10.8603 14.049 10.9439C14.0832 11.0274 14.1335 11.1034 14.197 11.1675C14.2606 11.2317 14.3362 11.2826 14.4194 11.3175C14.5027 11.3525 14.592 11.3706 14.6823 11.371C14.7726 11.3714 14.8621 11.354 14.9456 11.3198C15.0292 11.2856 15.1052 11.2353 15.1693 11.1717C15.2334 11.1082 15.2844 11.0326 15.3193 10.9493C15.3542 10.8661 15.3724 10.7768 15.3728 10.6865V6.21773C15.3728 4.4621 13.9665 3.01273 12.2093 2.99992ZM11.5603 10.0312C11.0125 10.0312 10.3728 9.73648 10.3728 8.90617C10.3728 8.57273 10.4925 8.33929 10.7612 8.14898C11.0228 7.96367 11.4237 7.83148 11.8906 7.77648C12.5506 7.69867 13.2912 7.65585 13.9262 7.63679C13.9347 7.63678 13.9431 7.63849 13.9509 7.64183C13.9587 7.64516 13.9657 7.65005 13.9715 7.65619C13.9774 7.66233 13.9819 7.66959 13.9849 7.67754C13.9878 7.68549 13.9891 7.69395 13.9887 7.70242C13.904 9.26867 13.1059 10.0312 11.5603 10.0312Z" fill="#6F665F"/>
</svg>
