<svg width="20" height="8" viewBox="0 0 20 8" fill="none" xmlns="http://www.w3.org/2000/svg">
<path fill-rule="evenodd" clip-rule="evenodd" d="M5.45455 5.99679C5.93676 5.99679 6.39922 5.78616 6.74019 5.41123C7.08117 5.0363 7.27273 4.52778 7.27273 3.99755C7.27273 3.46732 7.08117 2.9588 6.74019 2.58387C6.39922 2.20894 5.93676 1.99831 5.45455 1.99831C4.97233 1.99831 4.50987 2.20894 4.1689 2.58387C3.82792 2.9588 3.63636 3.46732 3.63636 3.99755C3.63636 4.52778 3.82792 5.0363 4.1689 5.41123C4.50987 5.78616 4.97233 5.99679 5.45455 5.99679ZM8.60455 1.99831C8.24319 1.31097 7.704 0.757406 7.05563 0.408075C6.40726 0.0587429 5.67902 -0.0705571 4.96361 0.0366311C4.2482 0.143819 3.57798 0.482649 3.03824 1.00999C2.49851 1.53733 2.11367 2.22934 1.93273 2.99793H0.909091C0.667985 2.99793 0.436754 3.10324 0.266267 3.29071C0.0957789 3.47818 0 3.73243 0 3.99755C0 4.26267 0.0957789 4.51692 0.266267 4.70439C0.436754 4.89185 0.667985 4.99717 0.909091 4.99717H1.93273C2.15612 5.9373 2.68306 6.7559 3.41516 7.3001C4.14726 7.8443 5.03446 8.07691 5.91111 7.95449C6.78776 7.83207 7.59392 7.36299 8.17907 6.63483C8.76421 5.90668 9.08833 4.96924 9.09091 3.99755H10.9091C10.9082 4.97145 11.2306 5.91221 11.8158 6.64328C12.401 7.37434 13.2087 7.84543 14.0873 7.96813C14.966 8.09083 15.8551 7.8567 16.5879 7.30969C17.3207 6.76268 17.8467 5.94039 18.0673 4.99717H19.0909C19.332 4.99717 19.5632 4.89185 19.7337 4.70439C19.9042 4.51692 20 4.26267 20 3.99755C20 3.73243 19.9042 3.47818 19.7337 3.29071C19.5632 3.10324 19.332 2.99793 19.0909 2.99793H18.0673C17.8863 2.22934 17.5015 1.53733 16.9618 1.00999C16.422 0.482649 15.7518 0.143819 15.0364 0.0366311C14.321 -0.0705571 13.5927 0.0587429 12.9444 0.408075C12.296 0.757406 11.7568 1.31097 11.3955 1.99831H8.60455ZM12.7273 3.99755C12.7273 4.52778 12.9188 5.0363 13.2598 5.41123C13.6008 5.78616 14.0632 5.99679 14.5455 5.99679C15.0277 5.99679 15.4901 5.78616 15.8311 5.41123C16.1721 5.0363 16.3636 4.52778 16.3636 3.99755C16.3636 3.46732 16.1721 2.9588 15.8311 2.58387C15.4901 2.20894 15.0277 1.99831 14.5455 1.99831C14.0632 1.99831 13.6008 2.20894 13.2598 2.58387C12.9188 2.9588 12.7273 3.46732 12.7273 3.99755Z" fill="#FFC536"/>
</svg>
