<svg width="10" height="12" viewBox="0 0 10 12" fill="none" xmlns="http://www.w3.org/2000/svg">
<path d="M2.52946 0H8.48396C8.91426 0 9.34584 0.0670769 9.64712 0.364923C9.94387 0.659077 10 1.06646 10 1.44615V8.70769C10 9.04185 9.95355 9.37046 9.77421 9.63631C9.67074 9.78965 9.52589 9.91358 9.35488 9.99508V10.5538C9.35488 10.9637 9.2852 11.3754 8.97361 11.6628C8.66524 11.9471 8.23816 12 7.84012 12H0.968256C0.711609 12 0.465474 11.9027 0.283997 11.7296C0.102521 11.5565 0.00056865 11.3217 0.00056865 11.0769V2.31815C-0.00136672 2.01169 -0.00330202 1.62892 0.0844349 1.28C0.192171 0.854154 0.440544 0.441231 0.968901 0.184615C1.18695 0.0787692 1.41662 0.0369231 1.66176 0.0184615C1.89723 -1.71936e-08 2.18432 0 2.52946 0ZM0.968256 11.0769H7.84012C8.19301 11.0769 8.28074 11.0178 8.30074 10.9994C8.31687 10.9846 8.38719 10.904 8.38719 10.5538V10.1538H1.93594C1.6793 10.1538 1.43316 10.2511 1.25168 10.4242C1.07021 10.5973 0.968256 10.8321 0.968256 11.0769Z" fill="#B4AFAB"/>
</svg>
